<svg width="130" height="43" viewBox="0 0 130 43" fill="none" xmlns="http://www.w3.org/2000/svg">
<g clip-path="url(#clip0_265_5701)">
<path d="M63.3109 38.3401H60.0409V31.5219H53.9019V38.3401H50.6318V25.7723H53.9019V28.6096H60.0409V21.4834H63.3109V38.3414V38.3401Z" fill="#0A0096"/>
<path d="M75.8714 32.3026H68.0382C68.0382 33.5343 68.2297 34.4335 68.6141 35.0015C68.9984 35.5695 69.7709 35.8541 70.9316 35.8541C71.6849 35.8541 72.2414 35.6134 72.6013 35.1321C72.9612 34.6509 73.1425 34.189 73.1425 33.7465H75.8945C75.8945 35.4362 75.4433 36.6743 74.5423 37.4635C73.6399 38.2528 72.4484 38.6474 70.9663 38.6474C69.4843 38.6474 68.3351 38.4339 67.5202 38.0082C65.8415 37.1401 65.0034 34.8359 65.0034 31.0943C65.0034 28.869 65.4816 27.2388 66.4379 26.2051C67.3942 25.1713 68.8532 24.6538 70.8134 24.6538C74.2158 24.6538 75.9176 26.5557 75.9176 30.3594C75.9176 30.7695 75.9022 31.4164 75.8701 32.3014L75.8714 32.3026ZM68.1089 30.1951H73.1425C73.1425 29.1536 72.9458 28.3954 72.5538 27.9219C72.1617 27.4484 71.5615 27.2116 70.7542 27.2116C69.947 27.2116 69.303 27.4523 68.8249 27.9335C68.3467 28.4148 68.1076 29.1691 68.1076 30.1951H68.1089Z" fill="#0A0096"/>
<path d="M88.1739 38.3399H85.116V29.6988C85.116 28.9251 84.9592 28.3959 84.6455 28.1126C84.3319 27.8279 83.8923 27.6869 83.328 27.6869L80.576 28.8474V38.3412H77.5181V24.8225H79.7996L80.5053 26.432L84.2689 24.6802C85.3191 24.6802 86.233 25.0709 87.0094 25.8523C87.7857 26.6338 88.1739 27.7736 88.1739 29.2731V38.3412V38.3399Z" fill="#0A0096"/>
<path d="M96.8771 24.9155L99.9351 24.7266V37.7252C99.9351 39.2247 99.516 40.3723 98.6767 41.1705C97.8373 41.9675 96.5943 42.366 94.9478 42.366C93.6778 42.366 92.5634 42.1137 91.607 41.6078C91.1045 41.3555 90.7047 40.9765 90.4078 40.4719C90.1096 39.966 89.9605 39.367 89.9605 38.6722L92.8063 38.5299C92.8063 38.9711 92.9631 39.2881 93.2768 39.477C93.5904 39.6659 94.1277 39.7616 94.8886 39.7616C95.6496 39.7616 96.1663 39.5727 96.4414 39.1936C96.7152 38.8146 96.8527 38.2699 96.8527 37.5596L96.971 35.5232L93.6778 37.2995C91.8744 37.2995 90.6584 36.6837 90.0312 35.4533C89.4669 34.3639 89.1841 33.0301 89.1841 31.4516C89.1841 29.5731 89.3255 28.2482 89.607 27.4746C89.9052 26.622 90.3281 26.0061 90.8769 25.6283C91.5826 25.1548 92.5081 24.918 93.6521 24.918H96.8745L96.8771 24.9155ZM96.8771 32.8463V27.6854H94.548C93.6701 27.6854 93.0659 27.9856 92.7369 28.5846C92.4078 29.1849 92.2433 30.0207 92.2433 31.0946C92.2433 32.1684 92.4117 32.9291 92.7485 33.3794C93.0852 33.8296 93.6855 34.0547 94.548 34.0547L96.8771 32.8476V32.8463Z" fill="#0A0096"/>
<path d="M112.473 32.3026H104.64C104.64 33.5343 104.831 34.4335 105.216 35.0015C105.6 35.5695 106.372 35.8541 107.533 35.8541C108.286 35.8541 108.843 35.6134 109.203 35.1321C109.563 34.6509 109.744 34.189 109.744 33.7465H112.496C112.496 35.4362 112.045 36.6743 111.144 37.4635C110.241 38.2528 109.05 38.6474 107.568 38.6474C106.086 38.6474 104.937 38.4339 104.122 38.0082C102.443 37.1401 101.605 34.8359 101.605 31.0943C101.605 28.869 102.083 27.2388 103.039 26.2051C103.996 25.1713 105.455 24.6538 107.415 24.6538C110.817 24.6538 112.519 26.5557 112.519 30.3594C112.519 30.7695 112.504 31.4164 112.472 32.3014L112.473 32.3026ZM104.71 30.1951H109.744C109.744 29.1536 109.547 28.3954 109.155 27.9219C108.763 27.4484 108.163 27.2116 107.356 27.2116C106.549 27.2116 105.905 27.4523 105.426 27.9335C104.948 28.4148 104.709 29.1691 104.709 30.1951H104.71Z" fill="#0A0096"/>
<path d="M117.294 38.3397L114.236 38.363V21.4766H117.294V38.3397Z" fill="#0A0096"/>
<path d="M129.973 31.5212C129.973 34.4413 129.424 36.3988 128.327 37.3924C127.401 38.245 126.06 38.6707 124.305 38.6707C122.062 38.6707 120.549 38.0083 119.765 36.6821C119.027 35.4673 118.659 33.7465 118.659 31.5212C118.659 29.4382 119.028 27.8042 119.765 26.6204C120.58 25.2943 122.065 24.6318 124.222 24.6318C126.379 24.6318 127.877 25.2115 128.715 26.372C129.554 27.5325 129.973 29.2481 129.973 31.5212ZM126.915 32.2315V30.9998C126.915 29.8315 126.747 28.9401 126.41 28.3243C126.073 27.7085 125.371 27.4005 124.305 27.4005C122.58 27.4005 121.717 28.5688 121.717 30.9041V32.1358C121.717 34.6457 122.58 35.9007 124.305 35.9007C125.418 35.9007 126.147 35.4828 126.492 34.6457C126.775 33.9833 126.915 33.1773 126.915 32.2302V32.2315Z" fill="#0A0096"/>
<path d="M51.7162 17.5951H50.8678C49.5477 17.5951 48.549 17.2328 47.8729 16.5083C47.1955 15.7838 46.8574 14.7397 46.8574 13.3774V9.21138C46.8574 7.84903 47.2263 6.80495 47.9629 6.08043C48.6994 5.35591 49.7457 4.99365 51.0992 4.99365H57.0377C57.4143 4.99365 57.6032 5.17478 57.6032 5.53704V18.2937C57.6032 19.6393 57.2305 20.6743 56.485 21.3988C55.7394 22.1233 54.6983 22.4856 53.3615 22.4856H48.4256C48.2199 22.4856 48.0785 22.4468 48.0014 22.3691C47.9243 22.2915 47.8857 22.1583 47.8857 21.9681V20.1827C47.8857 19.8204 48.0657 19.6393 48.4256 19.6393H52.8216C53.3705 19.6393 53.7599 19.5228 53.9913 19.2899C54.2227 19.0571 54.3384 18.6728 54.3384 18.1385V16.1719H54.2355C54.0466 16.6377 53.7124 16.9909 53.2329 17.2328C52.7535 17.4748 52.247 17.5951 51.7162 17.5951ZM54.3384 12.7822V8.12461C54.3384 7.93442 54.2355 7.83997 54.0299 7.83997H51.6133C51.0645 7.83997 50.6789 7.95641 50.4565 8.1893C50.2341 8.42218 50.1223 8.81419 50.1223 9.36664V13.2221C50.1223 13.7746 50.2341 14.1627 50.4565 14.3865C50.6789 14.6103 51.0645 14.7229 51.6133 14.7229H52.5645C53.7471 14.7229 54.3384 14.076 54.3384 12.7822Z" fill="#1CD9AA"/>
<path d="M10.9194 18.1903H2.51301C2.1531 18.1903 1.97314 18.0092 1.97314 17.6469V2.09563C1.97314 1.73338 2.1531 1.55225 2.51301 1.55225H10.9194C11.2626 1.55225 11.4336 1.73338 11.4336 2.09563V3.85518C11.4336 4.21744 11.2626 4.39857 10.9194 4.39857H5.54652C5.34086 4.39857 5.23802 4.49301 5.23802 4.6832V8.04703C5.23802 8.23722 5.34086 8.33167 5.54652 8.33167H9.94254C10.3024 8.33167 10.4824 8.5128 10.4824 8.87505V10.6346C10.4824 10.9969 10.3024 11.178 9.94254 11.178H5.54652C5.34086 11.178 5.23802 11.2724 5.23802 11.4626V15.0593C5.23802 15.2495 5.34086 15.344 5.54652 15.344H10.9194C11.2626 15.344 11.4336 15.5251 11.4336 15.8874V17.6469C11.4336 18.0092 11.2626 18.1903 10.9194 18.1903Z" fill="#1CD9AA"/>
<path d="M16.2406 18.1902H14.0555C13.6956 18.1902 13.5156 18.0091 13.5156 17.6468V5.53704C13.5156 5.17478 13.6956 4.99365 14.0555 4.99365H16.2406C16.6006 4.99365 16.7805 5.17478 16.7805 5.53704V6.39094H16.8833C17.26 5.45941 18.1006 4.99365 19.4027 4.99365H20.2253C22.9157 4.99365 24.2615 6.39999 24.2615 9.21138V17.6468C24.2615 18.0091 24.0725 18.1902 23.6959 18.1902H21.5364C21.1765 18.1902 20.9966 18.0091 20.9966 17.6468V9.36664C20.9966 8.81419 20.8809 8.42218 20.6495 8.18929C20.4181 7.95641 20.0287 7.83997 19.4798 7.83997H18.5543C17.3718 7.83997 16.7805 8.49592 16.7805 9.80652V17.6468C16.7805 18.0091 16.6006 18.1902 16.2406 18.1902Z" fill="#1CD9AA"/>
<path d="M36.1131 18.1902H30.4317C29.0782 18.1902 28.0319 17.828 27.2954 17.1035C26.5588 16.3789 26.1899 15.3349 26.1899 13.9725V9.21138C26.1899 7.84903 26.5588 6.80495 27.2954 6.08043C28.0319 5.35591 29.0782 4.99365 30.4317 4.99365H32.4626C33.8161 4.99365 34.8624 5.35591 35.599 6.08043C36.3355 6.80495 36.7044 7.84903 36.7044 9.21138V12.4976C36.7044 12.8598 36.5244 13.041 36.1645 13.041H29.7119C29.5062 13.041 29.4034 13.1354 29.4034 13.3256V13.8949C29.4034 14.4292 29.5191 14.8135 29.7505 15.0463C29.9818 15.2792 30.3713 15.3957 30.9202 15.3957H36.1131C36.473 15.3957 36.653 15.5858 36.653 15.9649V17.6727C36.653 17.8629 36.6144 17.9962 36.5373 18.0738C36.4602 18.1514 36.3188 18.1902 36.1131 18.1902ZM29.7119 10.8415H33.2081C33.3971 10.8415 33.4909 10.7471 33.4909 10.5569V9.31489C33.4909 8.76244 33.3791 8.37431 33.1567 8.15048C32.9344 7.92666 32.5487 7.8141 31.9999 7.8141H30.9202C30.3713 7.8141 29.9857 7.92666 29.7633 8.15048C29.5409 8.37431 29.4291 8.76244 29.4291 9.31489V10.5569C29.4291 10.7471 29.5229 10.8415 29.7119 10.8415Z" fill="#1CD9AA"/>
<path d="M41.3564 18.1902H39.1712C38.8113 18.1902 38.6313 18.0091 38.6313 17.6468V5.53704C38.6313 5.17478 38.8113 4.99365 39.1712 4.99365H41.3564C41.7163 4.99365 41.8962 5.17478 41.8962 5.53704V6.41681H41.9991C42.188 5.95105 42.5222 5.59785 43.0017 5.35591C43.4811 5.11397 43.9876 4.99365 44.5184 4.99365H45.4439C45.7871 4.99365 45.958 5.17478 45.958 5.53704V7.32246C45.958 7.52947 45.9195 7.67178 45.8424 7.74941C45.7652 7.82704 45.6328 7.85679 45.4439 7.83997H43.6701C42.4875 7.83997 41.8962 8.51274 41.8962 9.85827V17.6468C41.8962 18.0091 41.7163 18.1902 41.3564 18.1902Z" fill="#1CD9AA"/>
<path d="M60.0459 2.76869V0.517513C60.0459 0.172073 60.2169 0 60.5601 0H62.7966C63.1398 0 63.3108 0.16431 63.3108 0.491637V2.76869C63.3108 3.11413 63.1398 3.28621 62.7966 3.28621H60.5601C60.2169 3.28621 60.0459 3.11413 60.0459 2.76869ZM60.0459 17.6472V5.53739C60.0459 5.17513 60.2169 4.994 60.5601 4.994H62.7709C63.1308 4.994 63.3108 5.17513 63.3108 5.53739V17.6472C63.3108 17.871 63.2722 18.0185 63.1951 18.0871C63.118 18.1556 62.9856 18.1906 62.7966 18.1906H60.5858C60.2259 18.1906 60.0459 18.0094 60.0459 17.6472Z" fill="#1CD9AA"/>
<path d="M75.4188 18.1902H69.7374C68.3839 18.1902 67.3376 17.828 66.601 17.1035C65.8645 16.3789 65.4956 15.3349 65.4956 13.9725V9.21138C65.4956 7.84903 65.8645 6.80495 66.601 6.08043C67.3376 5.35591 68.3839 4.99365 69.7374 4.99365H71.7683C73.1218 4.99365 74.1681 5.35591 74.9046 6.08043C75.6412 6.80495 76.0101 7.84903 76.0101 9.21138V12.4976C76.0101 12.8598 75.8301 13.041 75.4702 13.041H69.0176C68.8119 13.041 68.7091 13.1354 68.7091 13.3256V13.8949C68.7091 14.4292 68.8248 14.8135 69.0561 15.0463C69.2875 15.2792 69.677 15.3957 70.2258 15.3957H75.4188C75.7787 15.3957 75.9586 15.5858 75.9586 15.9649V17.6727C75.9586 17.8629 75.9201 17.9962 75.843 18.0738C75.7658 18.1514 75.6244 18.1902 75.4188 18.1902ZM69.0176 10.8415H72.5138C72.7028 10.8415 72.7966 10.7471 72.7966 10.5569V9.31489C72.7966 8.76244 72.6848 8.37431 72.4624 8.15048C72.24 7.92666 71.8544 7.8141 71.3056 7.8141H70.2258C69.677 7.8141 69.2913 7.92666 69.069 8.15048C68.8466 8.37431 68.7348 8.76244 68.7348 9.31489V10.5569C68.7348 10.7471 68.8286 10.8415 69.0176 10.8415Z" fill="#1CD9AA"/>
<path d="M82.6455 4.99365H84.9078C85.251 4.99365 85.4566 5.17478 85.5247 5.53704L87.7356 15.2663H87.9156L90.075 5.53704C90.1431 5.17478 90.3578 4.99365 90.7177 4.99365H92.98C93.3399 4.99365 93.4684 5.17478 93.3656 5.53704L90.1264 17.621C90.0583 18 89.8269 18.1902 89.4323 18.1902H86.1674C85.8075 18.1902 85.5762 18 85.4733 17.621L82.2599 5.53704C82.157 5.17478 82.2856 4.99365 82.6455 4.99365Z" fill="#0A0096"/>
<path d="M99.3299 18.1902H98.713C97.3595 18.1902 96.3132 17.828 95.5766 17.1035C94.8401 16.3789 94.4712 15.3349 94.4712 13.9725V9.21138C94.4712 7.84903 94.8401 6.80495 95.5766 6.08043C96.3132 5.35591 97.3595 4.99365 98.713 4.99365H104.651C105.028 4.99365 105.217 5.17478 105.217 5.53704V17.6468C105.217 18.0091 105.028 18.1902 104.651 18.1902H102.492C102.132 18.1902 101.952 18.0091 101.952 17.6468V16.7929H101.849C101.66 17.2587 101.326 17.608 100.847 17.8409C100.367 18.0738 99.8608 18.1902 99.3299 18.1902ZM101.952 13.3774V8.12461C101.952 7.93442 101.849 7.83997 101.644 7.83997H99.2271C98.6783 7.83997 98.2926 7.95641 98.0703 8.18929C97.8479 8.42218 97.7361 8.81419 97.7361 9.36664V13.8172C97.7361 14.3697 97.8479 14.7617 98.0703 14.9946C98.2926 15.2275 98.6783 15.3439 99.2271 15.3439H100.178C101.361 15.3439 101.952 14.688 101.952 13.3774Z" fill="#0A0096"/>
<path d="M110.254 18.1902H108.069C107.709 18.1902 107.529 18.0091 107.529 17.6468V5.53704C107.529 5.17478 107.709 4.99365 108.069 4.99365H110.254C110.614 4.99365 110.794 5.17478 110.794 5.53704V6.39094H110.897C111.273 5.45941 112.114 4.99365 113.416 4.99365H114.239C116.929 4.99365 118.275 6.39999 118.275 9.21138V17.6468C118.275 18.0091 118.086 18.1902 117.709 18.1902H115.55C115.19 18.1902 115.01 18.0091 115.01 17.6468V9.36664C115.01 8.81419 114.894 8.42218 114.663 8.18929C114.431 7.95641 114.042 7.83997 113.493 7.83997H112.568C111.385 7.83997 110.794 8.49592 110.794 9.80652V17.6468C110.794 18.0091 110.614 18.1902 110.254 18.1902Z" fill="#0A0096"/>
<path d="M35.0126 37.7969V33.3605L26.5689 38.2678C26.4866 38.3157 26.3941 38.3403 26.299 38.3403H24.9082C24.61 38.3403 24.3683 38.097 24.3683 37.7969V33.3605L15.9246 38.2678C15.8424 38.3157 15.7498 38.3403 15.6547 38.3403H14.2639C13.9657 38.3403 13.724 38.097 13.724 37.7969V33.3605L5.28035 38.2678C5.19808 38.3157 5.10553 38.3403 5.01042 38.3403H0.641389C0.0886731 38.3403 -0.106706 37.6041 0.371458 37.3259L16.1804 28.1388C16.5403 27.9292 16.9902 28.1906 16.9902 28.6097V33.8534L26.8247 28.1388C27.1846 27.9292 27.6345 28.1906 27.6345 28.6097V33.8534L37.469 28.1388C37.8289 27.9292 38.2788 28.1906 38.2788 28.6097V33.8534L47.0772 28.7404C47.4371 28.5308 47.887 28.7922 47.887 29.2113V31.751C47.887 31.9451 47.7842 32.1249 47.6171 32.222L37.2132 38.2678C37.1309 38.3157 37.0384 38.3403 36.9433 38.3403H35.5525C35.2543 38.3403 35.0126 38.097 35.0126 37.7969Z" fill="#0A0096"/>
</g>
<defs>
<clipPath id="clip0_265_5701">
<rect width="129.873" height="42.3662" fill="white" transform="translate(0.100586)"/>
</clipPath>
</defs>
</svg>
